<?xml version="1.0" encoding="utf-8"?>
<!-- Generator: Adobe Illustrator 24.1.3, SVG Export Plug-In . SVG Version: 6.00 Build 0)  -->
<svg version="1.1" id="Layer_1" xmlns="http://www.w3.org/2000/svg" xmlns:xlink="http://www.w3.org/1999/xlink" x="0px" y="0px"
	 viewBox="0 0 505 136" style="enable-background:new 0 0 505 136;" xml:space="preserve">
<style type="text/css">
	.st0{clip-path:url(#SVGID_1_);fill:#82C7BB;}
	.st1{clip-path:url(#SVGID_1_);fill:#004D8E;}
</style>
<g>
	<defs>
		<rect id="SVGID_3_" x="-11.35" y="-10.7" width="527.6" height="157.16"/>
	</defs>
	<clipPath id="SVGID_1_">
		<use xlink:href="#SVGID_3_"  style="overflow:visible;"/>
	</clipPath>
	<path class="st0" d="M100.81,18.37c0,4.8-3.89,8.69-8.69,8.69c-4.8,0-8.68-3.89-8.68-8.69c0-4.8,3.88-8.69,8.68-8.69
		C96.92,9.69,100.81,13.58,100.81,18.37"/>
	<path class="st0" d="M92.12,29.86c-6.51,0-11.79,5.71-11.79,12.77v18.34c0,3.65,1.42,6.93,3.69,9.25v18.87c0,4.48,3.62,8.1,8.1,8.1
		c4.48,0,8.11-3.63,8.11-8.1V70.21c2.26-2.32,3.68-5.6,3.68-9.25V42.62C103.91,35.57,98.63,29.86,92.12,29.86"/>
	<path class="st0" d="M313.23,133.67c-2.9,0-5.4-0.73-7.09-1.99l-0.52-5.48c2.28,1.8,4.75,2.68,7.36,2.68c2.1,0,3.27-0.88,3.27-2.28
		c0-1.39-0.81-2.09-3.71-3.12c-4.08-1.43-6.25-4.04-6.25-7.28c0-3.97,2.98-7.13,8.12-7.13c2.9,0,4.7,0.74,5.73,1.4l-0.44,4.78
		c-1.1-0.74-3.01-1.48-4.85-1.48c-2.02,0-2.98,0.88-2.98,2.02c0,1.11,0.82,1.8,3.61,2.72c3.75,1.25,6.51,3.87,6.51,7.54
		C321.98,130.66,318.99,133.67,313.23,133.67"/>
	<path class="st0" d="M346.19,115.51c-1.21-0.77-3.05-1.47-5.59-1.47c-4.26,0-7.68,2.91-7.68,7.35c0,4.42,3.42,7.31,7.87,7.31
		c2.53,0,4.48-0.54,5.77-1.39l-0.48,5.11c-1.32,0.77-3.31,1.24-6.14,1.24c-6.18,0-12.79-4.22-12.79-12.27
		c0-8.08,6.65-12.27,12.79-12.27c2.94,0,5.26,0.62,6.65,1.43"/>
	<path class="st0" d="M364.12,133.67c-6.46,0-12.61-4.74-12.61-12.31c0-7.5,6.14-12.24,12.61-12.24c6.51,0,12.65,4.74,12.65,12.24
		C376.77,128.93,370.63,133.67,364.12,133.67 M364.12,114.12c-3.53,0-6.83,2.87-6.83,7.24c0,4.4,3.31,7.28,6.83,7.28
		c3.53,0,6.88-2.88,6.88-7.28C371,116.98,367.64,114.12,364.12,114.12"/>
	<polyline class="st0" points="393.11,114.23 393.11,133.12 387.44,133.12 387.44,114.18 380.36,114.18 380.36,109.67 
		400.17,109.67 400.17,114.23 	"/>
	<polyline class="st0" points="405.68,133.12 405.68,109.67 411.37,109.67 411.37,128.23 420.78,128.23 420.78,133.12 	"/>
	<path class="st0" d="M441.72,133.12l-1.84-4.89h-7.71l-1.8,4.89H425l9.22-23.63h3.94l9.23,23.63 M436.8,119.22
		c-0.26-0.66-0.51-1.54-0.74-2.39h-0.07c-0.18,0.84-0.48,1.72-0.74,2.39l-1.69,4.7h4.93L436.8,119.22z"/>
	<path class="st0" d="M472.04,133.37l-9.12-10c-1.47-1.61-3.12-3.59-4.37-5.14l-0.08,0.04c0.08,1.65,0.12,3.46,0.12,4.92v9.92h-5.7
		v-23.45l4.59,0l7.94,8.75c1.1,1.21,2.75,3.13,3.82,4.49l0.07-0.04c-0.07-1.4-0.1-2.9-0.1-4.38v-8.82h5.7v23.7"/>
	<path class="st0" d="M490.13,133.12h-7.91v-23.45h7.91c6.76,0,12.57,4.41,12.57,11.72C502.7,128.71,496.89,133.12,490.13,133.12
		 M489.47,114.56h-1.77v13.68h1.77c4.08,0,7.53-2.28,7.53-6.84C497,116.83,493.55,114.56,489.47,114.56"/>
	<path class="st1" d="M27.7,96.6H1.77l0-84.39l25.92,0c23.54,0,45.64,14.95,45.64,42.18C73.33,81.65,51.24,96.6,27.7,96.6
		 M25.45,23.06H14.47l0,62.69h10.98c19.05,0,34.79-9.91,34.79-31.35C60.24,32.98,44.5,23.06,25.45,23.06"/>
	<path class="st1" d="M128.6,98.06c-7.01,0-13.23-1.99-16.8-4.37l-2.78-13.22c4.89,4.23,12.57,7.41,19.85,7.41
		c5.69,0,9.53-3.04,9.53-7.14c0-4.24-3.05-6.75-8.61-8.73c-11.9-4.37-18.52-9.92-18.52-19.58c0-10.05,8.2-17.2,20.11-17.2
		c6.88,0,13.36,2.38,15.61,3.84l-2.24,10.06c-2.65-1.85-7.02-3.84-13.49-3.84c-5.03,0-8.34,2.78-8.34,6.75
		c0,3.83,2.78,5.82,8.73,7.94c12.04,4.37,18.79,9.79,18.79,20.24C150.43,89.86,143.15,98.06,128.6,98.06"/>
	<path class="st1" d="M203.61,50.3c-5.42-3.44-10.32-4.5-16.14-4.5c-10.98,0-21.16,7.94-21.16,20.9c0,12.83,10.45,20.77,21.43,20.77
		c5.56,0,10.45-1.06,17.2-4.22l-2.51,11.77c-4.37,1.98-9.79,3.04-15.75,3.04c-16.4,0-32.53-11.77-32.53-31.35
		c0-19.7,16.14-31.48,32.53-31.48c7.94,0,14.16,1.72,19.18,4.5"/>
	<path class="st1" d="M225.74,98.98c-3.97-1.06-11.9-5.02-11.9-16.53V2.42l12.04,0v78.44c0,5.56,4.36,9.26,8.07,9.92"/>
	<path class="st1" d="M267.59,98.05c-17.85,0-31.87-12.83-31.87-31.35c0-18.65,14.02-31.48,31.87-31.48
		c17.86,0,31.75,12.83,31.75,31.48C299.35,85.22,285.46,98.05,267.59,98.05 M267.59,45.8c-10.58,0-19.71,8.34-19.71,20.9
		c0,12.43,9.13,20.77,19.71,20.77c10.45,0,19.58-8.33,19.58-20.77C287.18,54.14,278.05,45.8,267.59,45.8"/>
	<path class="st1" d="M323.01,98.06c-7.01,0-13.23-1.99-16.8-4.37l-2.77-13.22c4.89,4.23,12.56,7.41,19.83,7.41
		c5.69,0,9.53-3.04,9.53-7.14c0-4.24-3.04-6.75-8.6-8.73c-11.9-4.37-18.52-9.92-18.52-19.58c0-10.05,8.19-17.2,20.1-17.2
		c6.88,0,13.37,2.38,15.61,3.84l-2.25,10.06c-2.65-1.85-7.01-3.84-13.49-3.84c-5.03,0-8.34,2.78-8.34,6.75
		c0,3.83,2.78,5.82,8.73,7.94c12.04,4.37,18.78,9.79,18.78,20.24C344.83,89.86,337.56,98.06,323.01,98.06"/>
	<path class="st1" d="M393.79,96.6l-0.52-5.96c-4.64,5.03-9.13,7.41-18.53,7.41c-13.1,0-22.75-8.33-22.75-21.69V36.68h12.03v38.49
		c0,6.22,3.84,12.57,13.9,12.57c9.66,0,14.42-6.34,14.42-12.57V36.68h12.04V96.6"/>
	<path class="st1" d="M447.4,46.07c-9.65,0-21.3,5.17-21.3,22.23V96.6h-12.04V36.68h11.38l0.53,9.39
		c3.17-7.4,11.37-10.18,20.37-10.18l2.24,10.18H447.4"/>
	<path class="st1" d="M503.11,62.87l-6.75,6.75h-36.11c0.4,7.4,7.27,17.85,21.3,17.85c7.67,0,13.62-2.11,19.18-6.08l-3.05,12.83
		c-4.24,2.24-9.65,3.84-17.72,3.84c-17.07,0-32.14-12.7-32.14-31.35c0-20.37,15.87-31.49,29.76-31.49
		c16.53,0,25.92,11.64,25.92,22.75C503.5,59.83,503.37,61.55,503.11,62.87 M478.24,45.55c-7.54,0-15.61,5.95-17.19,14.28h30.15
		c0.14-0.53,0.14-1.06,0.14-1.59C491.34,52.29,486.17,45.55,478.24,45.55"/>
</g>
</svg>
