<?xml version="1.0" encoding="utf-8"?>
<!-- Generator: Adobe Illustrator 24.1.3, SVG Export Plug-In . SVG Version: 6.00 Build 0)  -->
<svg version="1.1" id="Layer_1" xmlns="http://www.w3.org/2000/svg" xmlns:xlink="http://www.w3.org/1999/xlink" x="0px" y="0px"
	 viewBox="0 0 505 155" style="enable-background:new 0 0 505 155;" xml:space="preserve">
<style type="text/css">
	.st0{fill:#009540;}
	.st1{fill:#FFFFFF;}
	.st2{fill:#007732;}
	.st3{fill:#FFDC00;}
	.st4{fill:none;}
</style>
<g>
	<path class="st0" d="M252.74,153.29c-90.72,0-176.4-6.92-241.26-19.49l-4.45-0.86l-0.74-5.12c-2.36-16.33-3.56-33-3.56-49.53
		c0-16.54,1.2-33.21,3.56-49.53l0.74-5.12l4.45-0.86C76.34,10.21,162.02,3.29,252.74,3.29c90.71,0,176.39,6.92,241.26,19.49
		l4.45,0.86l0.74,5.12c2.36,16.33,3.55,33,3.55,49.53c0,16.54-1.2,33.2-3.55,49.53l-0.74,5.12l-4.45,0.86
		C429.13,146.37,343.46,153.29,252.74,153.29"/>
	<path class="st1" d="M492.33,35.53c-61.72-10.61-146.29-17.15-239.6-17.15S74.86,24.92,13.14,35.53
		c-2.26,13.9-3.46,28.18-3.46,42.76c0,14.58,1.2,28.86,3.46,42.76c61.72,10.6,146.29,17.15,239.6,17.15s177.87-6.54,239.6-17.15
		c2.26-13.9,3.46-28.18,3.46-42.76C495.8,63.71,494.6,49.43,492.33,35.53"/>
	<rect x="251.84" y="49.52" class="st2" width="12.09" height="55.45"/>
	<path class="st2" d="M352.41,101.1c-3.26,2.94-7.16,4.41-12.51,4.41c-7.25,0-11.06-2.77-14.05-6.14c-5.16-5.88-4.8-16.95-4.8-25.25
		s-0.36-19.55,4.8-25.43c2.99-3.37,6.8-6.14,14.05-6.14c5.35,0,9.24,1.47,12.51,4.41c3.35,3.03,5.44,7.87,5.71,13.75h-12.87
		c-0.09-1.73-0.27-3.46-1-4.76c-0.72-1.47-1.99-2.33-4.35-2.33c-2.36,0-3.54,1.04-4.26,2.42c-1.54,2.86-1.72,10.55-1.72,17.99
		c0,7.44,0.18,15.14,1.72,17.99c0.72,1.38,1.9,2.42,4.26,2.42c2.36,0,3.71-0.95,4.44-2.42c0.73-1.3,0.91-3.03,1-4.76h12.87
		C357.94,93.14,355.76,98.07,352.41,101.1"/>
	<polygon class="st2" points="445.84,104.81 445.84,49.7 473.77,49.7 473.77,59.61 457.93,59.61 457.93,72.07 468.84,72.07 
		466.53,81.98 457.93,81.98 457.93,94.91 473.77,94.91 473.77,104.81 	"/>
	<polygon class="st2" points="142.1,104.98 142.1,49.52 170.03,49.52 170.03,59.49 154.19,59.49 154.19,72.03 165.11,72.03 
		162.79,82 154.19,82 154.19,95.01 170.03,95.01 170.03,104.98 	"/>
	<path class="st1" d="M80.85,108.07H59.76c-1.84,0-3.51-0.8-4.65-2.08c-1.15,1.28-2.81,2.08-4.65,2.08H29.36
		c-3.45,0-6.26-2.81-6.26-6.26V80.73c0-1.85,0.8-3.51,2.08-4.66c-1.27-1.15-2.08-2.81-2.08-4.65V50.33c0-3.45,2.81-6.26,6.26-6.26
		h21.09c1.84,0,3.51,0.8,4.65,2.08c1.15-1.27,2.81-2.08,4.65-2.08h21.09c3.45,0,6.26,2.81,6.26,6.26v21.09
		c0,1.85-0.8,3.51-2.08,4.65c1.27,1.15,2.08,2.81,2.08,4.66v21.09C87.11,105.27,84.3,108.07,80.85,108.07"/>
	<path class="st0" d="M83.84,71.42V50.33c0-1.65-1.34-2.99-2.99-2.99H59.76c-1.65,0-2.99,1.34-2.99,2.99v0.79
		c-0.55-0.04-1.11-0.06-1.67-0.06c-0.56,0-1.11,0.03-1.66,0.06v-0.79c0-1.65-1.34-2.99-2.99-2.99H29.36c-1.65,0-2.99,1.34-2.99,2.99
		v21.09c0,1.65,1.34,2.99,2.99,2.99h0.81c-0.03,0.54-0.06,1.08-0.06,1.63c0,0.57,0.03,1.13,0.06,1.69h-0.82
		c-1.65,0-2.99,1.34-2.99,2.99v21.09c0,1.65,1.34,2.99,2.99,2.99h21.09c1.65,0,2.99-1.34,2.99-2.99v-0.85
		c0.55,0.04,1.1,0.06,1.66,0.06c0.56,0,1.12-0.02,1.67-0.06v0.85c0,1.65,1.34,2.99,2.99,2.99h21.09c1.65,0,2.99-1.34,2.99-2.99
		V80.72c0-1.65-1.34-2.99-2.99-2.99h-0.83c0.04-0.56,0.06-1.12,0.06-1.69c0-0.55-0.02-1.09-0.06-1.63h0.82
		C82.5,74.41,83.84,73.07,83.84,71.42"/>
	<rect x="60.36" y="50.92" class="st3" width="19.9" height="19.9"/>
	<rect x="29.96" y="81.32" class="st3" width="19.9" height="19.9"/>
	<rect x="60.36" y="81.32" class="st3" width="19.9" height="19.9"/>
	<rect x="29.96" y="50.92" class="st3" width="19.9" height="19.9"/>
	<path class="st2" d="M440.62,104.81l-8.86-23.84c5.88-3.33,6.9-8.59,6.9-14.47c0-10.53-3.66-16.8-16.86-16.8h-17.29v55.12h12.09
		V59.61h5.11c4.6,0,4.85,3.72,4.85,6.89c0,3.17-0.25,6.97-4.85,6.97h-4.1l10.4,31.35H440.62z"/>
	<path class="st2" d="M307.85,104.98L299,80.99c5.88-3.35,6.9-8.65,6.9-14.56c0-10.59-3.66-16.9-16.86-16.9h-17.29v55.45h12.09
		V59.49h5.11c4.6,0,4.86,3.74,4.86,6.93c0,3.19-0.26,7.01-4.86,7.01h-4.1l10.4,31.54H307.85z"/>
	<path class="st2" d="M127.27,78.18c6.25-3.72,7.34-9.6,7.34-16.17c0-11.76-3.9-18.77-17.94-18.77h-18.4v61.58h12.87V54.31h5.44
		c4.89,0,5.16,4.15,5.16,7.7s-0.27,7.78-5.16,7.78h-4.59l11.3,35.03h13.41L127.27,78.18z"/>
	<path class="st2" d="M193.59,49.52h-17.11v55.45h12.09V59.49h5.11c4.6,0,4.85,4.21,4.85,7.71c0,3.5-0.26,7.79-4.85,7.79h-4.23
		l3.19,9.97h0.95c13.11,0,17.03-6.93,17.03-17.84C210.62,56.3,206.7,49.52,193.59,49.52"/>
	<polygon class="st2" points="233.44,49.52 221.52,49.52 205.94,104.98 218.54,104.98 227.48,65.8 232.16,86.36 223.9,86.36 
		227.04,96.33 234.46,96.33 236.42,104.98 249.02,104.98 	"/>
	<polygon class="st2" points="386.14,49.7 374.22,49.7 358.64,104.81 371.24,104.81 380.18,65.88 384.86,86.31 376.6,86.31 
		379.74,96.22 387.16,96.22 389.12,104.81 401.72,104.81 	"/>
	<polyline class="st4" points="502.74,153.29 502.74,3.29 2.74,3.29 2.74,153.29 	"/>
</g>
</svg>
