<?xml version="1.0" encoding="utf-8"?>
<!-- Generator: Adobe Illustrator 24.1.3, SVG Export Plug-In . SVG Version: 6.00 Build 0)  -->
<svg version="1.1" id="Layer_1" xmlns="http://www.w3.org/2000/svg" xmlns:xlink="http://www.w3.org/1999/xlink" x="0px" y="0px"
	 viewBox="0 0 505 100" style="enable-background:new 0 0 505 100;" xml:space="preserve">
<style type="text/css">
	.st0{clip-path:url(#SVGID_1_);fill:#00A7A8;}
	.st1{clip-path:url(#SVGID_1_);fill:#002851;}
	.st2{clip-path:url(#SVGID_1_);fill:#4C5E84;}
</style>
<g>
	<defs>
		<rect id="SVGID_3_" x="-8.62" y="-21.68" width="519.2" height="142.97"/>
	</defs>
	<clipPath id="SVGID_1_">
		<use xlink:href="#SVGID_3_"  style="overflow:visible;"/>
	</clipPath>
	<path class="st0" d="M83.26,10.67L69.65,2.81c-2.06-1.19-4.61-1.19-6.67,0l-35.7,20.61c-2.07,1.19-3.34,3.4-3.34,5.78v15.72
		L83.26,10.67z"/>
	<path class="st0" d="M27.28,76.2l5.14,2.97l76.26-44.03V29.2c0-2.39-1.27-4.59-3.34-5.78l-5.14-2.97L23.95,64.48v5.93
		C23.95,72.8,25.22,75,27.28,76.2"/>
	<path class="st0" d="M49.37,88.95l13.61,7.86c2.06,1.19,4.61,1.19,6.67,0l39.03-22.54V54.7L49.37,88.95z"/>
	<path class="st1" d="M117.16,10.67l-13.61-7.86c-2.06-1.19-4.61-1.19-6.67,0L57.84,25.34v19.57L117.16,10.67z"/>
	<path class="st1" d="M61.18,76.2l5.14,2.97l76.26-44.03V29.2c0-2.39-1.27-4.59-3.34-5.78l-5.14-2.97L57.84,64.48v5.93
		C57.84,72.8,59.11,75,61.18,76.2"/>
	<path class="st1" d="M83.26,88.95l13.61,7.86c2.06,1.19,4.61,1.19,6.67,0l35.7-20.61c2.06-1.19,3.34-3.4,3.34-5.78V54.7
		L83.26,88.95z"/>
	<polygon class="st2" points="444.79,19.67 444.79,55.47 452.5,55.47 452.5,36.95 452.5,19.67 	"/>
	<polygon class="st2" points="462.21,36.37 476.55,19.67 466.59,19.67 452.5,36.95 456.38,41.43 467.84,55.47 477.58,55.47 	"/>
	<polygon class="st1" points="166.94,25.58 177.84,25.58 177.84,55.01 179.31,55.01 185.35,51.39 185.35,25.58 196.23,25.58 
		196.23,19.14 166.94,19.14 	"/>
	<path class="st1" d="M228.68,30.32c0-6.67-4.1-11.18-14.34-11.18h-13.41v35.87h7.51V42.9h5.35l0.81-0.01l7.28,12.13h8.36
		l-8.5-13.58C225.96,39.6,228.68,36,228.68,30.32 M214.36,36.45h-5.91V25.56h5.45c4.88,0,6.77,1.84,6.77,5.22
		C220.67,34.37,218.28,36.45,214.36,36.45"/>
	<path class="st1" d="M286.1,34.37c-5.43-1.95-9.08-2.65-9.08-5.64c0-2.47,2.06-3.84,5.38-3.84c2.91,0,6.24,1.03,8.7,2.75l3.19-5.61
		c-2.39-1.81-6.7-3.51-12.05-3.51c-7.69,0-13.03,3.83-13.03,10.5c0,5.92,4.03,8.46,9.85,10.41c5.1,1.69,8.27,2.51,8.27,5.23
		c0,2.38-2.08,3.99-6.44,3.99c-3.24,0-6.87-0.95-9.9-2.55l-2.33,6.22c3.74,2.27,8.59,3.31,12.63,3.31c8.26,0,14.01-4.11,14.01-11.42
		C295.29,38.86,291.93,36.44,286.1,34.37"/>
	<polygon class="st1" points="298.01,25.58 308.92,25.58 308.92,55.01 310.4,55.01 316.43,51.4 316.43,25.58 327.3,25.58 
		327.3,19.14 298.01,19.14 	"/>
	<polygon class="st2" points="351.25,45.03 339.19,19.14 332.01,19.14 332.01,55.01 339.21,55.01 339.21,33.19 348.87,53.97 
		353.11,53.97 362.92,33 362.92,55.01 370.12,55.01 370.12,19.14 362.88,19.14 	"/>
	<polygon class="st2" points="386.84,19.14 373.39,55.01 381.26,55.01 390.58,27.7 400.09,55.01 408.23,55.01 394.4,19.14 	"/>
	<path class="st2" d="M439.18,30.32c0-6.67-4.1-11.18-14.34-11.18h-13.41v35.87h7.51V42.9h5.36l0.81-0.01l7.28,12.13h8.36
		l-8.5-13.58C436.46,39.6,439.18,36,439.18,30.32 M424.86,36.45h-5.91V25.56h5.45c4.88,0,6.77,1.84,6.77,5.22
		C431.17,34.37,428.78,36.45,424.86,36.45"/>
	<path class="st1" d="M256.06,22.77v12.38v6.71c0,1.5,0.22,3.12-0.08,4.6c-0.26,1.29-1.51,1.85-2.66,2.16
		c-1.58,0.42-3.29,0.55-4.92,0.49c-1.43-0.05-2.85-0.27-4.23-0.64c-1.12-0.31-1.94-0.99-2.13-2.19c-0.22-1.45-0.05-2.96-0.05-4.42
		v-6.71V19.14h-1.46l-6.05,3.62v8.05c0,0,0,11.19,0.01,11.21v3.07c-0.04,0.83,0.02,3.42,1.7,5.8c0.16,0.23,0.32,0.46,0.51,0.68
		c2.26,2.62,6.91,4.24,12.12,4.23c0.07,0,0.14,0.01,0.21,0.01c0.07,0,0.14-0.01,0.21,0c5.21,0,9.86-1.62,12.12-4.24
		c0.19-0.22,0.35-0.45,0.51-0.68c1.68-2.38,1.73-4.97,1.7-5.8c0,0,0-3.07,0.01-3.08V30.81V19.14h-1.23L256.06,22.77z"/>
	<path class="st2" d="M176.42,69.5c0.13-0.71,0.37-1.43,0.71-2.15c0.33-0.72,0.75-1.34,1.25-1.87c0.5-0.53,1.15-0.96,1.94-1.28
		c0.8-0.33,1.7-0.49,2.69-0.49c2.39,0,4.24,1.07,5.53,3.2l-2.16,1.52c-0.55-0.81-1.1-1.36-1.67-1.65c-0.58-0.29-1.2-0.44-1.86-0.44
		c-0.66,0-1.24,0.15-1.73,0.45c-0.5,0.31-0.9,0.71-1.19,1.22c-0.29,0.51-0.51,1.08-0.66,1.71c-0.15,0.63-0.22,1.3-0.22,2.01
		c0,1.72,0.32,3.07,0.95,4.04c0.63,0.98,1.57,1.47,2.82,1.47c0.59,0,1.17-0.18,1.75-0.53c0.57-0.35,1.07-0.82,1.5-1.4v-1.67h-3.21
		v-2.32h5.89l0.01,8.27h-2.28l-0.11-1.51c-1.2,1.2-2.48,1.79-3.85,1.79c-0.94,0-1.78-0.15-2.51-0.45c-0.74-0.31-1.35-0.71-1.81-1.2
		c-0.46-0.49-0.86-1.1-1.17-1.81c-0.31-0.71-0.53-1.45-0.66-2.22c-0.12-0.77-0.19-1.6-0.19-2.48l0.02,0.02
		C176.21,70.99,176.28,70.24,176.42,69.5"/>
	<path class="st2" d="M191.49,72.38c0.06-0.26,0.13-0.53,0.22-0.79c0.09-0.26,0.2-0.52,0.33-0.79c0.26-0.53,0.58-1,0.97-1.41
		c0.38-0.4,0.88-0.74,1.49-1c0.61-0.26,1.28-0.4,2.01-0.4c0.77,0,1.46,0.13,2.05,0.39c0.6,0.26,1.09,0.6,1.47,1
		c0.37,0.41,0.69,0.88,0.94,1.41c0.25,0.53,0.43,1.05,0.53,1.56c0.11,0.52,0.16,1.03,0.16,1.53c0,0.29-0.02,0.56-0.05,0.84
		c-0.03,0.27-0.08,0.55-0.13,0.83c-0.12,0.56-0.31,1.09-0.57,1.61c-0.28,0.53-0.6,0.99-0.98,1.38c-0.37,0.39-0.86,0.7-1.46,0.95
		c-0.58,0.24-1.22,0.35-1.94,0.35c-0.71,0-1.36-0.12-1.97-0.37c-0.59-0.24-1.08-0.56-1.47-0.96c-0.38-0.39-0.7-0.85-0.98-1.38
		c-0.26-0.51-0.45-1.04-0.57-1.6c-0.12-0.56-0.18-1.11-0.18-1.65l-0.03,0.02C191.33,73.42,191.39,72.9,191.49,72.38 M194.7,76.47
		c0.48,0.72,1.08,1.08,1.81,1.08c0.76,0,1.38-0.36,1.83-1.06c0.46-0.71,0.69-1.56,0.69-2.56c0-1.06-0.21-1.93-0.63-2.59
		c-0.43-0.67-1.06-1-1.88-1c-0.54,0-1.01,0.18-1.41,0.53c-0.4,0.36-0.69,0.8-0.87,1.32c-0.18,0.54-0.27,1.12-0.27,1.72
		C193.98,74.9,194.22,75.75,194.7,76.47"/>
	<path class="st2" d="M207.14,72.73c0.35,1.07,0.55,1.69,0.6,1.86l0.4,1.49h0.05c0.12-0.44,0.21-0.78,0.29-1.02
		c0.07-0.24,0.12-0.39,0.14-0.45l2.07-6.42h2.91l-4.29,11.38h-2.27l-4.3-11.38h2.9C206.3,70.15,206.79,71.66,207.14,72.73"/>
	<path class="st2" d="M215.16,71.01c0.38-0.92,0.98-1.65,1.78-2.19c0.8-0.54,1.77-0.81,2.91-0.81c0.68,0,1.3,0.11,1.86,0.34
		c0.55,0.23,1,0.53,1.36,0.91c0.35,0.37,0.64,0.81,0.89,1.32c0.24,0.51,0.4,1.04,0.5,1.56c0.05,0.26,0.08,0.53,0.11,0.8
		c0.02,0.27,0.04,0.55,0.04,0.83v0.16c0,0.03,0,0.07,0,0.11c0,0.05-0.01,0.1-0.02,0.17c-0.01,0.14-0.02,0.28-0.03,0.44h-7.34
		c0.03,0.9,0.26,1.62,0.68,2.16c0.42,0.53,1.02,0.8,1.8,0.8c0.59,0,1.12-0.12,1.59-0.37c0.47-0.24,0.9-0.68,1.31-1.34l1.92,1.27
		c-0.6,1-1.27,1.7-2,2.1c-0.75,0.4-1.72,0.6-2.93,0.6c-0.69,0-1.31-0.11-1.88-0.35c-0.56-0.23-1.03-0.53-1.41-0.9
		c-0.37-0.37-0.68-0.81-0.95-1.31c-0.26-0.5-0.45-1.01-0.56-1.53c-0.11-0.51-0.17-1.04-0.17-1.59h-0.03
		C214.59,72.98,214.78,71.91,215.16,71.01 M221.29,70.98c-0.39-0.46-0.93-0.69-1.61-0.69c-0.65,0-1.18,0.24-1.6,0.72
		c-0.42,0.49-0.69,1.08-0.8,1.79h4.69C221.91,72.05,221.68,71.44,221.29,70.98"/>
	<path class="st2" d="M229.42,68.18l0.2,1.51c0.19-0.26,0.36-0.47,0.5-0.63c0.13-0.15,0.3-0.31,0.52-0.5
		c0.21-0.18,0.44-0.31,0.69-0.41c0.25-0.09,0.53-0.15,0.83-0.19c0.04-0.01,0.09-0.01,0.16-0.01c0.19,0,0.43,0.04,0.7,0.11
		c0.33,0.1,0.61,0.23,0.86,0.39l-0.71,2.31c-0.57-0.2-0.95-0.3-1.15-0.3c-0.5,0-0.92,0.16-1.25,0.47c-0.34,0.32-0.65,0.79-0.93,1.41
		l-0.01,7.22h-2.59l-0.02-11.39H229.42z"/>
	<path class="st2" d="M238.55,68.17l0.08,1.59c0.47-0.57,0.94-1,1.44-1.28c0.49-0.28,1.04-0.44,1.66-0.48
		c0.06-0.01,0.12-0.01,0.19-0.01h0.18c0.43,0,0.82,0.06,1.18,0.18c0.45,0.16,0.82,0.38,1.09,0.67c0.29,0.3,0.53,0.66,0.71,1.07
		c0.18,0.42,0.31,0.86,0.39,1.32c0.04,0.23,0.06,0.47,0.08,0.71c0.02,0.25,0.03,0.5,0.03,0.77v6.85h-2.64V72.7
		c0-1.5-0.59-2.25-1.77-2.25c-0.51,0-0.96,0.19-1.37,0.57c-0.41,0.39-0.76,0.87-1.05,1.44l0.01,7.11h-2.65v-11.4H238.55z"/>
	<path class="st2" d="M251.02,68.19l0.22,1.64c0.51-0.57,0.98-1,1.41-1.28c0.42-0.28,0.93-0.44,1.5-0.5
		c0.06-0.01,0.11-0.01,0.17-0.01h0.17l0.62,0.04c0.31,0.05,0.63,0.15,0.98,0.3c0.33,0.15,0.64,0.37,0.93,0.68
		c0.28,0.3,0.51,0.67,0.69,1.12c0.11-0.14,0.22-0.27,0.31-0.39c0.1-0.12,0.19-0.22,0.28-0.32c0.19-0.2,0.41-0.41,0.67-0.63
		c0.26-0.22,0.56-0.4,0.88-0.54c0.31-0.13,0.64-0.22,0.99-0.25c0.08-0.01,0.15-0.01,0.23-0.02c0.08,0,0.16,0,0.23,0
		c0.57,0.01,1.06,0.1,1.48,0.26c0.55,0.21,0.97,0.53,1.27,0.97c0.3,0.44,0.53,0.94,0.68,1.5c0.15,0.56,0.22,1.2,0.22,1.91v6.93
		h-2.67v-6.95c0-0.7-0.14-1.26-0.43-1.67c-0.26-0.37-0.66-0.55-1.2-0.55c-0.07,0-0.12,0-0.15,0.01c-0.51,0.03-0.96,0.23-1.36,0.59
		c-0.39,0.36-0.69,0.81-0.92,1.35l0.01,7.2h-2.66v-6.95c0-0.68-0.14-1.23-0.43-1.66c-0.26-0.37-0.64-0.56-1.14-0.56h-0.08
		c-0.03,0-0.06,0-0.09,0.01c-0.99,0.08-1.79,0.77-2.38,2.06v7.1h-2.66l-0.06-11.38H251.02z"/>
	<path class="st2" d="M268.07,71.01c0.38-0.92,0.97-1.65,1.78-2.19c0.8-0.54,1.77-0.81,2.91-0.81c0.68,0,1.3,0.11,1.86,0.34
		c0.55,0.23,1,0.53,1.36,0.91c0.35,0.37,0.64,0.81,0.89,1.32c0.24,0.51,0.4,1.04,0.5,1.56c0.05,0.26,0.08,0.53,0.11,0.8
		c0.02,0.27,0.04,0.55,0.04,0.83v0.16c0,0.03,0,0.07,0,0.11c0,0.05-0.01,0.1-0.02,0.17c-0.01,0.14-0.02,0.28-0.03,0.44h-7.34
		c0.03,0.9,0.25,1.62,0.68,2.16c0.42,0.53,1.02,0.8,1.8,0.8c0.59,0,1.12-0.12,1.6-0.37c0.47-0.24,0.9-0.68,1.31-1.34l1.92,1.27
		c-0.6,1-1.27,1.7-2,2.1c-0.74,0.4-1.72,0.6-2.93,0.6c-0.69,0-1.31-0.11-1.88-0.35c-0.56-0.23-1.03-0.53-1.41-0.9
		c-0.37-0.37-0.68-0.81-0.95-1.31c-0.26-0.5-0.45-1.01-0.56-1.53c-0.11-0.51-0.17-1.04-0.17-1.59h-0.03
		C267.49,72.98,267.69,71.91,268.07,71.01 M274.2,70.98c-0.39-0.46-0.93-0.69-1.61-0.69c-0.65,0-1.18,0.24-1.59,0.72
		c-0.42,0.49-0.69,1.08-0.8,1.79h4.69C274.82,72.05,274.59,71.44,274.2,70.98"/>
	<path class="st2" d="M282.64,68.17l0.08,1.59c0.47-0.57,0.94-1,1.44-1.28c0.49-0.28,1.04-0.44,1.66-0.48
		c0.06-0.01,0.12-0.01,0.19-0.01h0.18c0.43,0,0.82,0.06,1.18,0.18c0.45,0.16,0.82,0.38,1.09,0.67c0.29,0.3,0.53,0.66,0.71,1.07
		c0.18,0.42,0.31,0.86,0.39,1.32c0.04,0.23,0.06,0.47,0.08,0.71c0.02,0.25,0.03,0.5,0.03,0.77v6.85h-2.64V72.7
		c0-1.5-0.59-2.25-1.77-2.25c-0.51,0-0.96,0.19-1.36,0.57c-0.41,0.39-0.76,0.87-1.05,1.44l0.01,7.11h-2.65v-11.4H282.64z"/>
	<path class="st2" d="M293.27,68.18V65.7l2.56-0.96v3.44h2.41v2.13h-2.41v6.27c0,0.33,0.07,0.58,0.22,0.75
		c0.15,0.18,0.4,0.26,0.75,0.26c0.04,0,0.14-0.01,0.31-0.04c0.17-0.02,0.41-0.06,0.72-0.11l0.31,1.92
		c-0.71,0.24-1.28,0.37-1.71,0.37c-0.52,0-0.97-0.06-1.37-0.18c-0.4-0.12-0.71-0.27-0.93-0.45c-0.23-0.19-0.42-0.42-0.56-0.69
		c-0.14-0.26-0.24-0.54-0.29-0.81c-0.03-0.14-0.05-0.28-0.06-0.43c-0.01-0.15-0.01-0.31-0.01-0.49v-6.36h-1.76l-0.01-2.14H293.27z"
		/>
	<polygon class="st2" points="316.6,63.89 316.45,66.43 309.14,66.43 309.14,70.37 315.61,70.37 315.45,72.83 309.14,72.83 
		309.14,76.98 316.69,76.98 316.54,79.57 306.38,79.57 306.38,63.89 	"/>
	<path class="st2" d="M321.92,68.17l0.08,1.59c0.47-0.57,0.94-1,1.44-1.28c0.49-0.28,1.04-0.44,1.66-0.48
		c0.06-0.01,0.12-0.01,0.19-0.01h0.18c0.43,0,0.82,0.06,1.18,0.18c0.45,0.16,0.82,0.38,1.09,0.67c0.29,0.3,0.53,0.66,0.71,1.07
		c0.18,0.42,0.31,0.86,0.39,1.32c0.04,0.23,0.06,0.47,0.08,0.71c0.02,0.25,0.03,0.5,0.03,0.77v6.85h-2.64V72.7
		c0-1.5-0.59-2.25-1.77-2.25c-0.51,0-0.96,0.19-1.37,0.57c-0.41,0.39-0.76,0.87-1.05,1.44l0.01,7.11h-2.65v-11.4H321.92z"/>
	<path class="st2" d="M331.63,72.52c0.09-0.55,0.26-1.1,0.5-1.66c0.24-0.55,0.54-1.04,0.9-1.46c0.36-0.42,0.82-0.76,1.4-1.02
		c0.58-0.26,1.24-0.4,1.96-0.4c1.07,0,2.09,0.5,3.07,1.5v-5.39l2.61-0.97v16.44h-2.32l-0.1-1.54c-0.54,0.61-1.09,1.07-1.64,1.39
		c-0.56,0.31-1.17,0.47-1.86,0.47c-0.66,0-1.25-0.11-1.78-0.34c-0.53-0.23-0.97-0.53-1.31-0.91c-0.35-0.37-0.64-0.81-0.88-1.31
		c-0.24-0.49-0.41-1-0.51-1.53c-0.1-0.52-0.15-1.05-0.15-1.57h-0.02C331.49,73.65,331.54,73.09,331.63,72.52 M334.44,75.62
		c0.16,0.49,0.43,0.92,0.8,1.27c0.37,0.35,0.83,0.53,1.38,0.53c0.61,0,1.16-0.19,1.66-0.55c0.49-0.36,0.87-0.84,1.14-1.44V72.2
		c-0.26-0.52-0.63-0.94-1.09-1.25c-0.47-0.31-0.99-0.47-1.56-0.47c-0.46,0-0.86,0.1-1.19,0.29c-0.34,0.2-0.6,0.47-0.78,0.81
		c-0.19,0.35-0.32,0.72-0.41,1.12c-0.08,0.41-0.12,0.85-0.12,1.31h-0.05C334.2,74.59,334.28,75.12,334.44,75.62"/>
	<path class="st2" d="M344.95,72.38c0.05-0.26,0.13-0.53,0.22-0.79c0.09-0.26,0.2-0.52,0.34-0.79c0.26-0.53,0.58-1,0.97-1.41
		c0.38-0.4,0.88-0.74,1.49-1c0.61-0.26,1.28-0.4,2.01-0.4c0.77,0,1.46,0.13,2.05,0.39c0.6,0.26,1.09,0.6,1.47,1
		c0.37,0.41,0.69,0.88,0.94,1.41c0.25,0.53,0.43,1.05,0.53,1.56c0.11,0.52,0.16,1.03,0.16,1.53c0,0.29-0.02,0.56-0.05,0.84
		c-0.03,0.27-0.07,0.55-0.13,0.83c-0.12,0.56-0.31,1.09-0.57,1.61c-0.28,0.53-0.6,0.99-0.98,1.38c-0.37,0.39-0.86,0.7-1.46,0.95
		c-0.58,0.24-1.22,0.35-1.94,0.35c-0.71,0-1.37-0.12-1.97-0.37c-0.59-0.24-1.08-0.56-1.47-0.96c-0.37-0.39-0.7-0.85-0.98-1.38
		c-0.26-0.51-0.45-1.04-0.57-1.6c-0.12-0.56-0.18-1.11-0.18-1.65l-0.03,0.02C344.8,73.42,344.85,72.9,344.95,72.38 M348.16,76.47
		c0.48,0.72,1.08,1.08,1.81,1.08c0.76,0,1.38-0.36,1.83-1.06c0.46-0.71,0.69-1.56,0.69-2.56c0-1.06-0.21-1.93-0.64-2.59
		c-0.43-0.67-1.05-1-1.88-1c-0.54,0-1.01,0.18-1.41,0.53c-0.4,0.36-0.69,0.8-0.86,1.32c-0.18,0.54-0.27,1.12-0.27,1.72
		C347.44,74.9,347.68,75.75,348.16,76.47"/>
	<path class="st2" d="M359.98,68.18l0.2,1.51c0.19-0.26,0.36-0.47,0.5-0.63c0.13-0.15,0.3-0.31,0.52-0.5
		c0.21-0.18,0.44-0.31,0.69-0.41c0.25-0.09,0.53-0.15,0.83-0.19c0.03-0.01,0.09-0.01,0.15-0.01c0.19,0,0.43,0.04,0.7,0.11
		c0.33,0.1,0.61,0.23,0.86,0.39l-0.71,2.31c-0.57-0.2-0.95-0.3-1.15-0.3c-0.5,0-0.92,0.16-1.25,0.47c-0.34,0.32-0.65,0.79-0.93,1.41
		l-0.01,7.22h-2.59l-0.02-11.39H359.98z"/>
	<path class="st2" d="M370.03,77.57c0.45,0,0.86-0.12,1.24-0.36c0.37-0.24,0.56-0.57,0.56-1c0-0.22-0.11-0.42-0.31-0.58
		c-0.2-0.16-0.47-0.3-0.81-0.42c-0.32-0.11-0.69-0.23-1.12-0.34c-0.41-0.11-0.82-0.25-1.22-0.41c-0.42-0.16-0.79-0.35-1.12-0.56
		c-0.33-0.22-0.6-0.52-0.81-0.89c-0.21-0.37-0.31-0.81-0.31-1.3c0-1.11,0.37-2.01,1.12-2.69c0.76-0.68,1.7-1.02,2.81-1.02
		c0.9,0,1.71,0.21,2.43,0.63c0.72,0.42,1.31,1.01,1.75,1.76l-1.93,1.31c-0.58-0.91-1.37-1.37-2.35-1.37c-0.36,0-0.67,0.1-0.92,0.31
		c-0.25,0.21-0.38,0.49-0.38,0.86c0,0.22,0.11,0.41,0.31,0.57c0.21,0.17,0.48,0.3,0.81,0.41c0.17,0.06,0.34,0.11,0.53,0.16
		c0.19,0.05,0.38,0.11,0.58,0.16c0.2,0.06,0.41,0.12,0.61,0.19c0.21,0.07,0.41,0.15,0.61,0.23c0.2,0.08,0.4,0.17,0.58,0.27
		c0.19,0.09,0.37,0.19,0.53,0.31c0.33,0.22,0.6,0.52,0.81,0.91c0.21,0.39,0.31,0.84,0.31,1.34c0,1.12-0.4,2.04-1.2,2.75
		c-0.81,0.71-1.78,1.06-2.91,1.06c-1.17,0-2.11-0.19-2.83-0.56c-0.71-0.37-1.35-1.05-1.91-2.02l1.92-1.31
		C368.13,77.04,368.98,77.57,370.03,77.57"/>
	<path class="st2" d="M377.04,71.01c0.38-0.92,0.97-1.65,1.78-2.19c0.8-0.54,1.77-0.81,2.91-0.81c0.68,0,1.3,0.11,1.86,0.34
		c0.55,0.23,1,0.53,1.36,0.91c0.35,0.37,0.64,0.81,0.89,1.32c0.24,0.51,0.4,1.04,0.5,1.56c0.05,0.26,0.09,0.53,0.11,0.8
		c0.02,0.27,0.04,0.55,0.04,0.83v0.16c0,0.03,0,0.07,0,0.11c0,0.05-0.01,0.1-0.02,0.17c-0.01,0.14-0.02,0.28-0.03,0.44h-7.34
		c0.03,0.9,0.25,1.62,0.68,2.16c0.42,0.53,1.02,0.8,1.8,0.8c0.59,0,1.12-0.12,1.6-0.37c0.47-0.24,0.9-0.68,1.31-1.34l1.92,1.27
		c-0.6,1-1.27,1.7-2,2.1c-0.74,0.4-1.72,0.6-2.93,0.6c-0.69,0-1.31-0.11-1.88-0.35c-0.56-0.23-1.03-0.53-1.41-0.9
		c-0.37-0.37-0.69-0.81-0.95-1.31c-0.26-0.5-0.45-1.01-0.56-1.53c-0.11-0.51-0.17-1.04-0.17-1.59h-0.03
		C376.47,72.98,376.66,71.91,377.04,71.01 M383.17,70.98c-0.39-0.46-0.93-0.69-1.61-0.69c-0.65,0-1.18,0.24-1.59,0.72
		c-0.42,0.49-0.69,1.08-0.8,1.79h4.69C383.79,72.05,383.56,71.44,383.17,70.98"/>
	<path class="st2" d="M388.83,72.52c0.09-0.55,0.26-1.1,0.5-1.66c0.24-0.55,0.53-1.04,0.9-1.46c0.36-0.42,0.82-0.76,1.4-1.02
		c0.58-0.26,1.24-0.4,1.96-0.4c1.07,0,2.09,0.5,3.07,1.5v-5.39l2.61-0.97v16.44h-2.31l-0.11-1.54c-0.54,0.61-1.09,1.07-1.64,1.39
		c-0.56,0.31-1.17,0.47-1.85,0.47c-0.66,0-1.26-0.11-1.78-0.34c-0.53-0.23-0.97-0.53-1.31-0.91c-0.35-0.37-0.64-0.81-0.88-1.31
		c-0.24-0.49-0.41-1-0.51-1.53c-0.1-0.52-0.15-1.05-0.15-1.57h-0.02C388.68,73.65,388.73,73.09,388.83,72.52 M391.63,75.62
		c0.16,0.49,0.43,0.92,0.8,1.27c0.37,0.35,0.83,0.53,1.38,0.53c0.61,0,1.16-0.19,1.66-0.55c0.49-0.36,0.87-0.84,1.14-1.44V72.2
		c-0.26-0.52-0.63-0.94-1.09-1.25c-0.47-0.31-0.99-0.47-1.57-0.47c-0.46,0-0.86,0.1-1.19,0.29c-0.34,0.2-0.6,0.47-0.78,0.81
		c-0.19,0.35-0.32,0.72-0.41,1.12c-0.08,0.41-0.13,0.85-0.13,1.31h-0.05C391.39,74.59,391.47,75.12,391.63,75.62"/>
	<path class="st2" d="M408.12,69.34c0.15-0.75,0.4-1.47,0.75-2.16c0.34-0.69,0.76-1.29,1.25-1.81c0.49-0.52,1.09-0.94,1.82-1.25
		c0.71-0.31,1.51-0.47,2.38-0.47c0.86,0,1.63,0.15,2.33,0.45c0.72,0.3,1.32,0.71,1.8,1.22c0.49,0.51,0.91,1.11,1.25,1.79
		c0.35,0.7,0.6,1.43,0.77,2.19c0.17,0.77,0.25,1.56,0.25,2.38c0,1.06-0.15,2.13-0.44,3.21c-0.29,1.1-0.75,2.04-1.38,2.84l1.5,2.29
		l-1.73,1.37l-1.45-2.22c-0.87,0.45-1.84,0.68-2.91,0.68c-0.69,0-1.33-0.09-1.94-0.27c-0.59-0.17-1.11-0.41-1.54-0.72
		c-0.43-0.3-0.82-0.66-1.17-1.09c-0.34-0.42-0.62-0.88-0.84-1.37c-0.11-0.24-0.21-0.49-0.3-0.75c-0.09-0.25-0.17-0.52-0.25-0.79
		c-0.15-0.54-0.25-1.07-0.31-1.59c-0.06-0.51-0.09-1.03-0.09-1.56l0.01-0.07C407.88,70.87,407.96,70.1,408.12,69.34 M410.71,72.37
		c0.02,0.25,0.04,0.49,0.08,0.74c0.07,0.49,0.2,0.98,0.38,1.48c0.17,0.5,0.39,0.94,0.66,1.31c0.26,0.37,0.59,0.68,1.01,0.92
		c0.41,0.24,0.88,0.35,1.41,0.35c0.53,0,1.01-0.11,1.44-0.34L414,74.24l1.72-1.35c0.05,0.08,0.14,0.23,0.28,0.44
		c0.07,0.1,0.15,0.22,0.23,0.36c0.09,0.13,0.19,0.29,0.31,0.46c0.12,0.17,0.23,0.34,0.33,0.5c0.1,0.15,0.2,0.3,0.29,0.44
		c0.42-0.97,0.63-2.11,0.63-3.44c0-0.23-0.01-0.46-0.03-0.69c-0.02-0.23-0.05-0.47-0.08-0.71c-0.08-0.49-0.2-0.97-0.39-1.44
		c-0.19-0.49-0.42-0.92-0.67-1.28c-0.26-0.38-0.6-0.69-1-0.93c-0.4-0.24-0.85-0.35-1.34-0.35c-0.44,0-0.83,0.09-1.19,0.26
		c-0.36,0.17-0.67,0.41-0.92,0.7c-0.24,0.28-0.46,0.62-0.66,0.99c-0.19,0.37-0.33,0.76-0.44,1.17c-0.05,0.21-0.1,0.41-0.14,0.61
		c-0.04,0.2-0.07,0.39-0.1,0.59c-0.03,0.19-0.05,0.38-0.06,0.56c-0.01,0.18-0.02,0.36-0.02,0.54l-0.07-0.03
		C410.69,71.87,410.69,72.12,410.71,72.37"/>
	<path class="st2" d="M426.19,68.19v6.99c0,1.5,0.59,2.25,1.78,2.25c0.5,0,0.96-0.19,1.37-0.56c0.4-0.37,0.75-0.85,1.03-1.43
		l-0.01-7.25h2.65v11.38h-2.32l-0.2-1.46c-0.47,0.58-0.95,1.01-1.44,1.28c-0.49,0.27-1.05,0.43-1.66,0.47
		c-0.06,0.01-0.12,0.01-0.19,0.01h-0.18c-0.42,0-0.8-0.06-1.16-0.18c-0.45-0.16-0.82-0.38-1.09-0.67c-0.28-0.3-0.52-0.65-0.71-1.06
		c-0.18-0.4-0.31-0.84-0.39-1.31c-0.03-0.23-0.06-0.47-0.08-0.72c-0.02-0.25-0.03-0.51-0.03-0.77l-0.02-6.99H426.19z"/>
	<path class="st2" d="M435.66,75.09c0.09-0.32,0.22-0.6,0.37-0.84c0.16-0.24,0.37-0.46,0.63-0.65c0.26-0.19,0.51-0.34,0.75-0.47
		c0.12-0.06,0.25-0.12,0.4-0.17c0.15-0.05,0.32-0.1,0.5-0.15c0.18-0.05,0.35-0.09,0.5-0.12c0.15-0.04,0.3-0.06,0.44-0.08
		c0.14-0.02,0.29-0.04,0.45-0.06c0.16-0.02,0.35-0.04,0.55-0.05c0.39-0.03,0.71-0.05,0.96-0.06c0.12-0.01,0.26-0.01,0.41-0.01h0.52
		c0-0.79-0.12-1.33-0.36-1.63c-0.24-0.31-0.72-0.46-1.44-0.46c-0.49,0-0.96,0.08-1.39,0.23c-0.43,0.15-0.91,0.41-1.45,0.78
		l-1.28-1.79c1.07-1.01,2.42-1.52,4.04-1.52c0.58,0,1.09,0.06,1.53,0.17c0.45,0.12,0.83,0.26,1.15,0.44c0.33,0.18,0.6,0.41,0.8,0.7
		c0.23,0.31,0.4,0.6,0.52,0.88c0.12,0.28,0.21,0.63,0.29,1.06c0.03,0.21,0.06,0.41,0.08,0.6c0.02,0.19,0.04,0.38,0.05,0.56
		c0.02,0.37,0.03,0.8,0.03,1.28v5.87h-2.18c-0.03-0.42-0.06-0.75-0.08-0.99c-0.02-0.24-0.03-0.41-0.03-0.49
		c-0.46,0.49-0.99,0.91-1.59,1.26c-0.58,0.34-1.17,0.51-1.79,0.51c-1.1,0-1.96-0.35-2.59-1.05c-0.62-0.69-0.94-1.59-0.94-2.69
		l-0.02,0.04C435.52,75.79,435.57,75.43,435.66,75.09 M438.49,77.3c0.26,0.26,0.63,0.39,1.13,0.39c0.47,0,0.94-0.16,1.41-0.48
		c0.47-0.32,0.83-0.71,1.1-1.16v-1.84h-0.51c-0.06,0-0.14,0-0.23,0c-0.09,0-0.2,0.01-0.32,0.01c-0.12,0.01-0.23,0.02-0.33,0.02
		c-0.1,0.01-0.19,0.02-0.26,0.03c-0.15,0.02-0.34,0.05-0.57,0.09c-0.23,0.04-0.42,0.09-0.56,0.16c-0.15,0.06-0.3,0.15-0.47,0.25
		c-0.17,0.11-0.31,0.23-0.4,0.34c-0.1,0.14-0.18,0.29-0.24,0.45c-0.06,0.18-0.09,0.38-0.09,0.6l-0.02,0.01
		C438.1,76.67,438.23,77.04,438.49,77.3"/>
	<path class="st2" d="M450.09,63.12v13.52c0,0.35,0.06,0.59,0.19,0.72c0.13,0.13,0.32,0.2,0.59,0.2c0.03,0,0.07,0,0.11-0.01
		c0.04,0,0.08-0.01,0.13-0.02c0.04-0.01,0.09-0.01,0.15-0.02c0.06-0.01,0.12-0.02,0.2-0.03l0.44-0.06l0.32,1.93
		c-0.68,0.25-1.23,0.37-1.66,0.37c-0.49,0-0.93-0.06-1.32-0.18c-0.36-0.11-0.66-0.26-0.89-0.46c-0.21-0.18-0.38-0.42-0.51-0.71
		c-0.12-0.29-0.21-0.56-0.25-0.82c-0.04-0.27-0.06-0.57-0.06-0.91l-0.04-12.56L450.09,63.12z"/>
	<path class="st2" d="M457.19,68.19v11.38h-2.6v-9.26h-1.17v-2.13H457.19z M454.6,63.41c0.36-0.35,0.78-0.53,1.25-0.53
		c0.47,0,0.89,0.18,1.24,0.53c0.35,0.35,0.53,0.78,0.53,1.27c0,0.49-0.18,0.91-0.53,1.26c-0.35,0.35-0.77,0.53-1.24,0.53
		c-0.48,0-0.9-0.18-1.25-0.53c-0.35-0.35-0.53-0.78-0.53-1.27l-0.01,0.01C454.06,64.18,454.24,63.76,454.6,63.41"/>
	<path class="st2" d="M461.03,68.18V65.7l2.56-0.96v3.44H466v2.13h-2.41v6.27c0,0.33,0.07,0.58,0.22,0.75
		c0.15,0.18,0.4,0.26,0.75,0.26c0.04,0,0.14-0.01,0.31-0.04c0.17-0.02,0.41-0.06,0.72-0.11l0.31,1.92
		c-0.72,0.24-1.29,0.37-1.71,0.37c-0.51,0-0.97-0.06-1.37-0.18c-0.4-0.12-0.71-0.27-0.93-0.45c-0.23-0.19-0.42-0.42-0.56-0.69
		c-0.14-0.26-0.24-0.54-0.29-0.81c-0.03-0.14-0.05-0.28-0.06-0.43c-0.01-0.15-0.02-0.31-0.02-0.49v-6.36h-1.76l-0.01-2.14H461.03z"
		/>
	<path class="st2" d="M471.9,73.55l0.72,2.4h0.09c0.36-1.22,0.6-2,0.72-2.35l1.68-5.37H478l-4.63,13.23
		c-0.34,0.99-0.77,1.7-1.28,2.11c-0.51,0.4-1.27,0.6-2.3,0.6c-0.41,0-0.97-0.1-1.69-0.31l0.33-2.12c0.04,0.01,0.09,0.02,0.16,0.03
		c0.06,0.01,0.14,0.03,0.22,0.05c0.16,0.04,0.31,0.07,0.46,0.09c0.13,0.02,0.26,0.03,0.37,0.03c0.19,0,0.34-0.02,0.46-0.06
		c0.12-0.04,0.23-0.12,0.33-0.25c0.19-0.25,0.54-1.06,1.05-2.42l-4.2-11.03l2.87,0.04C471.23,71.5,471.81,73.27,471.9,73.55"/>
</g>
</svg>
