<?xml version="1.0" encoding="utf-8"?>
<!-- Generator: Adobe Illustrator 24.1.3, SVG Export Plug-In . SVG Version: 6.00 Build 0)  -->
<svg version="1.1" id="Layer_1" xmlns="http://www.w3.org/2000/svg" xmlns:xlink="http://www.w3.org/1999/xlink" x="0px" y="0px"
	 viewBox="0 0 63 50" style="enable-background:new 0 0 63 50;" xml:space="preserve">
<style type="text/css">
	.st0{fill:#FFFFFF;}
</style>
<g>
	<polygon class="st0" points="16.93,49.52 12.76,49.52 12.76,19.36 16.93,15.2 	"/>
	<polygon class="st0" points="25.25,49.52 21.09,49.52 21.09,11.04 25.25,6.87 	"/>
	<polygon class="st0" points="8.61,49.52 4.44,49.52 4.44,31.84 0.28,31.84 4.44,27.68 8.61,23.52 	"/>
	<polygon class="st0" points="41.9,49.52 37.74,49.52 37.74,6.87 41.9,11.04 	"/>
	<rect x="46.06" y="11.04" class="st0" width="4.16" height="38.49"/>
	<polygon class="st0" points="58.54,49.52 54.38,49.52 54.38,23.52 58.54,27.68 62.7,31.84 58.54,31.84 	"/>
	<polygon class="st0" points="33.57,34.02 29.42,34.02 29.42,2.71 31.49,0.63 33.57,2.71 	"/>
</g>
</svg>
