<?xml version="1.0" encoding="utf-8"?>
<!-- Generator: Adobe Illustrator 23.0.2, SVG Export Plug-In . SVG Version: 6.00 Build 0)  -->
<svg version="1.1" id="Layer_1" xmlns="http://www.w3.org/2000/svg" xmlns:xlink="http://www.w3.org/1999/xlink" x="0px" y="0px"
	 viewBox="0 0 534 215" style="enable-background:new 0 0 534 215;" xml:space="preserve">
<style type="text/css">
	.st0{fill:#FFFFFF;}
</style>
<g>
	<path class="st0" d="M87.71,130.89c12.34,0,22.33-10,22.33-22.33c0-3.53,0.82-6.86,2.27-9.83l0,0c0.53,0,0.95-0.43,0.95-0.95l0,0
		c0-0.52-0.42-0.95-0.95-0.95H9.14c-0.52,0-0.95,0.42-0.95,0.95l0,0c0,0.52,0.43,0.95,0.95,0.95l0,0c1.45,2.96,2.27,6.3,2.27,9.83
		c0,12.33,10,22.33,22.33,22.33h0.14h6.79c6.4,0,11.59,6.05,11.59,13.52l-4.25,55.39c0,7.47,5.19,13.52,11.59,13.52h2.25
		c6.4,0,11.59-6.05,11.59-13.52l-4.24-55.39c0-7.47,5.19-13.52,11.58-13.52h6.79H87.71z M60.73,205.18c-2.94,0-5.33-2.38-5.33-5.33
		s2.39-5.33,5.33-5.33c2.94,0,5.33,2.38,5.33,5.33S63.67,205.18,60.73,205.18z"/>
	<g>
		<path class="st0" d="M123.68,1.71h15.89v76.69h47.92v14.45h-63.8V1.71z"/>
		<path class="st0" d="M204.28,1.71h40.81c10.48,0,18.41,2.69,23.79,8.07c4.07,4.08,6.11,9.12,6.11,15.1v0.26
			c0,2.78-0.37,5.23-1.1,7.36c-0.73,2.13-1.68,3.99-2.84,5.6c-1.16,1.61-2.54,3.02-4.13,4.23c-1.59,1.22-3.21,2.26-4.84,3.12
			c2.67,0.96,5.11,2.06,7.31,3.32c2.2,1.26,4.1,2.76,5.7,4.49c1.6,1.74,2.83,3.78,3.69,6.12c0.86,2.34,1.29,5.08,1.29,8.2v0.26
			c0,4.08-0.8,7.68-2.4,10.81c-1.6,3.12-3.88,5.73-6.82,7.81c-2.95,2.08-6.5,3.67-10.66,4.75c-4.16,1.09-8.75,1.63-13.78,1.63
			h-42.11V1.71z M241.97,40.13c5.19,0,9.34-1.02,12.46-3.06c3.11-2.04,4.67-5.14,4.67-9.31V27.5c0-3.64-1.36-6.49-4.09-8.53
			c-2.73-2.04-6.68-3.06-11.87-3.06h-22.97v24.22H241.97z M246.65,78.67c5.45,0,9.74-1.04,12.85-3.13c3.11-2.08,4.67-5.21,4.67-9.38
			v-0.26c0-3.91-1.54-6.92-4.61-9.05c-3.07-2.13-7.77-3.19-14.09-3.19h-25.32v25H246.65z"/>
		<path class="st0" d="M299.2,1.71h15.89v91.15H299.2V1.71z"/>
		<path class="st0" d="M383.05,94.42c-7.03,0-13.46-1.24-19.27-3.71c-5.82-2.47-10.81-5.84-14.98-10.09
			c-4.17-4.25-7.42-9.22-9.77-14.91c-2.34-5.68-3.52-11.74-3.52-18.16v-0.26c0-6.42,1.17-12.48,3.52-18.16
			c2.34-5.69,5.64-10.68,9.89-14.97c4.25-4.3,9.29-7.7,15.11-10.22c5.82-2.52,12.24-3.78,19.27-3.78c7.03,0,13.45,1.24,19.27,3.71
			c5.81,2.47,10.81,5.84,14.97,10.09c4.17,4.25,7.42,9.22,9.77,14.91c2.34,5.69,3.52,11.74,3.52,18.16v0.26
			c0,6.43-1.17,12.48-3.52,18.17c-2.34,5.69-5.64,10.68-9.89,14.97c-4.25,4.3-9.29,7.7-15.11,10.22
			C396.51,93.16,390.09,94.42,383.05,94.42z M383.31,79.71c4.49,0,8.62-0.84,12.38-2.54c3.76-1.69,6.98-3.99,9.66-6.9
			c2.68-2.91,4.77-6.31,6.29-10.22c1.51-3.91,2.27-8.07,2.27-12.5v-0.26c0-4.43-0.76-8.61-2.27-12.56
			c-1.51-3.95-3.63-7.38-6.35-10.29c-2.72-2.91-5.99-5.23-9.79-6.97c-3.8-1.73-7.95-2.6-12.45-2.6c-4.5,0-8.62,0.85-12.38,2.54
			c-3.76,1.69-6.98,3.99-9.66,6.9c-2.68,2.91-4.78,6.32-6.29,10.22c-1.51,3.91-2.27,8.07-2.27,12.5v0.26
			c0,4.43,0.76,8.62,2.27,12.57c1.51,3.95,3.63,7.38,6.35,10.29c2.72,2.91,5.99,5.23,9.79,6.97
			C374.67,78.84,378.82,79.71,383.31,79.71z"/>
		<path class="st0" d="M450.24,1.71h14.81l48.73,63.02V1.71h15.89v91.15h-13.39l-50.16-64.84v64.84h-15.88V1.71z"/>
	</g>
	<g>
		<path class="st0" d="M123.71,116.97h5.57c0.82,0,1.55,0.12,2.19,0.34c0.64,0.23,1.19,0.55,1.64,0.96
			c0.45,0.42,0.79,0.91,1.03,1.49c0.24,0.58,0.36,1.22,0.36,1.92v0.04c0,0.79-0.14,1.49-0.43,2.09c-0.29,0.6-0.68,1.1-1.18,1.5
			c-0.5,0.4-1.08,0.71-1.76,0.91c-0.67,0.2-1.39,0.3-2.15,0.3h-2.28v4.1h-3V116.97z M129.09,123.86c0.75,0,1.34-0.2,1.76-0.59
			c0.42-0.4,0.62-0.89,0.62-1.47v-0.04c0-0.68-0.22-1.19-0.65-1.54c-0.44-0.35-1.03-0.53-1.78-0.53h-2.32v4.17H129.09z"/>
		<path class="st0" d="M148.23,116.88H151l5.85,13.74h-3.14l-1.25-3.06h-5.77l-1.25,3.06h-3.06L148.23,116.88z M151.39,124.91
			l-1.81-4.43l-1.81,4.43H151.39z"/>
		<path class="st0" d="M165.92,116.97h3v13.65h-3V116.97z"/>
		<path class="st0" d="M179.15,116.97h2.77l6.39,8.4v-8.4h2.96v13.65h-2.56l-6.61-8.68v8.68h-2.96V116.97z"/>
		<path class="st0" d="M204.55,119.74h-4.15v-2.77h11.31v2.77h-4.15v10.88h-3V119.74z"/>
		<path class="st0" d="M220.83,116.97h10.27v2.67h-7.31v2.77h6.43v2.67h-6.43v2.86h7.41v2.67h-10.37V116.97z"/>
		<path class="st0" d="M240.72,116.97h6.24c1.73,0,3.05,0.46,3.98,1.38c0.78,0.78,1.17,1.82,1.17,3.12v0.04c0,1.1-0.27,2-0.81,2.7
			c-0.54,0.7-1.24,1.21-2.11,1.53l3.33,4.87H249l-2.92-4.37h-0.04h-2.32v4.37h-3V116.97z M246.76,123.6c0.74,0,1.31-0.17,1.71-0.53
			c0.4-0.35,0.59-0.82,0.59-1.41v-0.03c0-0.65-0.21-1.14-0.62-1.47c-0.42-0.32-1-0.49-1.74-0.49h-2.98v3.92H246.76z"/>
		<path class="st0" d="M266.51,130.82c-1.04,0-2.06-0.18-3.06-0.53c-1-0.36-1.91-0.91-2.73-1.65l1.77-2.13
			c0.62,0.51,1.26,0.91,1.92,1.21c0.66,0.3,1.38,0.45,2.16,0.45c0.62,0,1.11-0.11,1.45-0.34c0.34-0.23,0.52-0.54,0.52-0.95v-0.04
			c0-0.2-0.03-0.37-0.11-0.52c-0.07-0.15-0.21-0.29-0.41-0.42c-0.2-0.13-0.48-0.26-0.84-0.39c-0.36-0.13-0.82-0.27-1.4-0.41
			c-0.69-0.17-1.32-0.36-1.88-0.57c-0.56-0.2-1.04-0.46-1.43-0.77c-0.39-0.3-0.69-0.68-0.91-1.14c-0.21-0.46-0.32-1.02-0.32-1.7
			v-0.04c0-0.62,0.12-1.18,0.35-1.69c0.23-0.5,0.56-0.93,0.98-1.3c0.42-0.36,0.92-0.64,1.5-0.84c0.58-0.19,1.22-0.29,1.92-0.29
			c1,0,1.92,0.15,2.76,0.45c0.84,0.3,1.61,0.72,2.31,1.29l-1.56,2.26c-0.61-0.42-1.21-0.74-1.79-0.98
			c-0.59-0.24-1.17-0.36-1.76-0.36c-0.58,0-1.02,0.11-1.32,0.34c-0.29,0.23-0.44,0.51-0.44,0.85v0.04c0,0.22,0.04,0.41,0.13,0.58
			c0.08,0.16,0.24,0.31,0.46,0.44c0.22,0.13,0.53,0.26,0.91,0.37c0.39,0.12,0.87,0.25,1.46,0.41c0.69,0.18,1.31,0.39,1.85,0.61
			c0.54,0.23,1,0.5,1.37,0.82c0.37,0.32,0.65,0.69,0.84,1.12c0.19,0.43,0.28,0.94,0.28,1.54v0.04c0,0.68-0.12,1.28-0.37,1.8
			c-0.25,0.53-0.59,0.97-1.03,1.33c-0.44,0.36-0.96,0.63-1.57,0.82C267.93,130.72,267.25,130.82,266.51,130.82z"/>
		<path class="st0" d="M301.21,129.3c-0.56,0.45-1.17,0.82-1.82,1.1c-0.66,0.28-1.38,0.42-2.17,0.42c-0.65,0-1.26-0.09-1.81-0.27
			c-0.56-0.19-1.04-0.45-1.45-0.79c-0.41-0.34-0.73-0.75-0.97-1.24c-0.23-0.48-0.35-1.03-0.35-1.64v-0.04
			c0-0.87,0.23-1.62,0.68-2.23c0.46-0.62,1.11-1.12,1.97-1.51c-0.34-0.47-0.58-0.92-0.73-1.36c-0.15-0.44-0.22-0.89-0.22-1.36v-0.04
			c0-0.47,0.09-0.92,0.27-1.35c0.18-0.43,0.45-0.81,0.8-1.14c0.35-0.33,0.78-0.6,1.3-0.8c0.51-0.2,1.1-0.3,1.76-0.3
			c0.58,0,1.11,0.09,1.58,0.26c0.47,0.18,0.87,0.42,1.21,0.73c0.34,0.32,0.6,0.68,0.78,1.09c0.18,0.42,0.27,0.86,0.27,1.34v0.04
			c0,0.45-0.07,0.86-0.2,1.23c-0.14,0.37-0.33,0.7-0.59,0.99c-0.25,0.29-0.55,0.54-0.9,0.76c-0.35,0.22-0.74,0.42-1.17,0.58
			l1.81,1.81c0.22-0.35,0.44-0.72,0.66-1.12c0.22-0.39,0.44-0.8,0.66-1.22l2.2,1.21c-0.26,0.48-0.54,0.97-0.84,1.46
			c-0.3,0.49-0.62,0.97-0.95,1.42l2.01,2.01l-2.2,1.54L301.21,129.3z M297.57,128.36c0.33,0,0.67-0.07,1-0.2
			c0.33-0.14,0.65-0.33,0.97-0.58l-2.61-2.65c-0.46,0.23-0.78,0.51-0.98,0.82c-0.19,0.31-0.29,0.63-0.29,0.97v0.04
			c0,0.48,0.18,0.87,0.54,1.16C296.55,128.21,297.01,128.36,297.57,128.36z M297.88,122.2c0.6-0.22,1.05-0.47,1.36-0.75
			c0.31-0.28,0.46-0.63,0.46-1.06v-0.04c0-0.39-0.12-0.7-0.36-0.93c-0.24-0.23-0.55-0.34-0.93-0.34c-0.4,0-0.72,0.13-0.96,0.38
			c-0.24,0.25-0.36,0.59-0.36,1v0.04c0,0.3,0.06,0.57,0.19,0.83C297.39,121.59,297.59,121.87,297.88,122.2z"/>
		<path class="st0" d="M326.67,116.97h5.32c1.07,0,2.04,0.17,2.93,0.52c0.89,0.34,1.66,0.82,2.3,1.43c0.64,0.61,1.14,1.33,1.49,2.15
			c0.35,0.83,0.53,1.72,0.53,2.68v0.04c0,0.96-0.18,1.86-0.53,2.69c-0.35,0.83-0.85,1.55-1.49,2.16c-0.64,0.61-1.41,1.09-2.3,1.44
			c-0.89,0.35-1.87,0.53-2.93,0.53h-5.32V116.97z M331.99,127.91c0.61,0,1.17-0.1,1.68-0.29c0.51-0.19,0.94-0.47,1.3-0.84
			c0.36-0.36,0.64-0.79,0.84-1.29c0.2-0.5,0.3-1.05,0.3-1.66v-0.04c0-0.6-0.1-1.15-0.3-1.66c-0.2-0.51-0.48-0.94-0.84-1.31
			c-0.36-0.37-0.79-0.65-1.3-0.85c-0.51-0.2-1.07-0.3-1.68-0.3h-2.32v8.23H331.99z"/>
		<path class="st0" d="M348.74,116.97h10.27v2.67h-7.31v2.77h6.43v2.67h-6.43v2.86h7.41v2.67h-10.37V116.97z"/>
		<path class="st0" d="M375.02,130.85c-1,0-1.93-0.18-2.79-0.55c-0.86-0.36-1.6-0.86-2.22-1.49c-0.62-0.63-1.11-1.37-1.46-2.23
			c-0.35-0.86-0.53-1.77-0.53-2.75v-0.04c0-0.98,0.18-1.89,0.53-2.74c0.35-0.85,0.84-1.6,1.46-2.24c0.62-0.64,1.37-1.15,2.24-1.52
			c0.87-0.37,1.83-0.55,2.89-0.55c0.64,0,1.22,0.05,1.74,0.15c0.53,0.11,1,0.25,1.43,0.43c0.43,0.18,0.83,0.4,1.19,0.66
			c0.36,0.26,0.7,0.55,1.01,0.85l-1.91,2.21c-0.53-0.48-1.07-0.86-1.63-1.13c-0.55-0.27-1.17-0.41-1.86-0.41
			c-0.57,0-1.1,0.11-1.59,0.33c-0.49,0.22-0.91,0.53-1.26,0.92c-0.35,0.39-0.62,0.84-0.82,1.35c-0.2,0.51-0.29,1.06-0.29,1.65v0.04
			c0,0.58,0.1,1.14,0.29,1.66c0.19,0.52,0.46,0.97,0.81,1.36c0.34,0.39,0.76,0.7,1.25,0.93c0.49,0.23,1.02,0.34,1.61,0.34
			c0.78,0,1.44-0.14,1.98-0.43c0.54-0.29,1.07-0.68,1.61-1.17l1.91,1.93c-0.35,0.37-0.71,0.71-1.09,1.01
			c-0.38,0.3-0.79,0.56-1.24,0.77c-0.45,0.22-0.94,0.38-1.47,0.49C376.28,130.8,375.68,130.85,375.02,130.85z"/>
		<path class="st0" d="M396.46,130.85c-1.05,0-2.02-0.18-2.9-0.55c-0.88-0.37-1.65-0.87-2.29-1.5c-0.64-0.63-1.14-1.37-1.5-2.22
			c-0.36-0.85-0.54-1.76-0.54-2.74v-0.04c0-0.98,0.18-1.89,0.54-2.74c0.37-0.85,0.87-1.6,1.51-2.24c0.64-0.64,1.41-1.15,2.3-1.52
			c0.89-0.37,1.86-0.55,2.91-0.55s2.02,0.18,2.9,0.55c0.88,0.37,1.65,0.87,2.29,1.5c0.64,0.63,1.15,1.37,1.5,2.22
			c0.36,0.85,0.54,1.77,0.54,2.74v0.04c0,0.97-0.18,1.89-0.55,2.74c-0.36,0.85-0.87,1.6-1.51,2.24c-0.64,0.65-1.41,1.15-2.3,1.52
			C398.49,130.67,397.51,130.85,396.46,130.85z M396.5,128.09c0.6,0,1.15-0.11,1.66-0.33c0.51-0.22,0.94-0.53,1.3-0.92
			c0.36-0.39,0.64-0.84,0.84-1.36c0.2-0.51,0.3-1.06,0.3-1.65v-0.04c0-0.59-0.1-1.14-0.3-1.66c-0.2-0.52-0.49-0.98-0.86-1.37
			c-0.37-0.39-0.81-0.7-1.32-0.93c-0.51-0.23-1.06-0.34-1.66-0.34c-0.61,0-1.17,0.11-1.67,0.33c-0.5,0.22-0.93,0.53-1.29,0.92
			c-0.36,0.39-0.64,0.84-0.84,1.35c-0.2,0.51-0.3,1.06-0.3,1.65v0.04c0,0.58,0.1,1.14,0.3,1.66c0.2,0.52,0.49,0.97,0.86,1.36
			c0.37,0.39,0.81,0.7,1.3,0.93C395.33,127.97,395.89,128.09,396.5,128.09z"/>
		<path class="st0" d="M413.23,116.97h6.24c1.73,0,3.05,0.46,3.98,1.38c0.78,0.78,1.17,1.82,1.17,3.12v0.04c0,1.1-0.27,2-0.81,2.7
			c-0.54,0.7-1.24,1.21-2.11,1.53l3.33,4.87h-3.51l-2.92-4.37h-0.04h-2.32v4.37h-3V116.97z M419.27,123.6
			c0.74,0,1.31-0.17,1.71-0.53c0.4-0.35,0.59-0.82,0.59-1.41v-0.03c0-0.65-0.21-1.14-0.62-1.47c-0.42-0.32-0.99-0.49-1.74-0.49
			h-2.98v3.92H419.27z"/>
		<path class="st0" d="M438.82,116.88h2.77l5.85,13.74h-3.14l-1.25-3.06h-5.77l-1.25,3.06h-3.06L438.82,116.88z M441.98,124.91
			l-1.82-4.43l-1.81,4.43H441.98z"/>
		<path class="st0" d="M459.55,119.74h-4.15v-2.77h11.31v2.77h-4.15v10.88h-3V119.74z"/>
		<path class="st0" d="M482.45,130.85c-1.05,0-2.02-0.18-2.9-0.55c-0.88-0.37-1.65-0.87-2.29-1.5c-0.65-0.63-1.14-1.37-1.5-2.22
			c-0.36-0.85-0.54-1.76-0.54-2.74v-0.04c0-0.98,0.18-1.89,0.55-2.74c0.36-0.85,0.87-1.6,1.51-2.24c0.64-0.64,1.41-1.15,2.3-1.52
			c0.89-0.37,1.86-0.55,2.92-0.55c1.05,0,2.02,0.18,2.9,0.55c0.88,0.37,1.65,0.87,2.29,1.5c0.64,0.63,1.15,1.37,1.5,2.22
			c0.36,0.85,0.54,1.77,0.54,2.74v0.04c0,0.97-0.18,1.89-0.55,2.74c-0.36,0.85-0.87,1.6-1.51,2.24c-0.64,0.65-1.41,1.15-2.3,1.52
			C484.48,130.67,483.5,130.85,482.45,130.85z M482.49,128.09c0.6,0,1.15-0.11,1.65-0.33c0.51-0.22,0.94-0.53,1.3-0.92
			c0.35-0.39,0.63-0.84,0.84-1.36c0.2-0.51,0.3-1.06,0.3-1.65v-0.04c0-0.59-0.1-1.14-0.3-1.66c-0.2-0.52-0.49-0.98-0.86-1.37
			c-0.37-0.39-0.81-0.7-1.32-0.93c-0.51-0.23-1.06-0.34-1.66-0.34c-0.61,0-1.17,0.11-1.67,0.33c-0.5,0.22-0.93,0.53-1.29,0.92
			c-0.36,0.39-0.64,0.84-0.84,1.35c-0.2,0.51-0.3,1.06-0.3,1.65v0.04c0,0.58,0.1,1.14,0.3,1.66c0.2,0.52,0.49,0.97,0.86,1.36
			c0.37,0.39,0.81,0.7,1.31,0.93C481.32,127.97,481.88,128.09,482.49,128.09z"/>
		<path class="st0" d="M499.22,116.97h6.24c1.73,0,3.05,0.46,3.97,1.38c0.78,0.78,1.17,1.82,1.17,3.12v0.04c0,1.1-0.27,2-0.81,2.7
			c-0.54,0.7-1.25,1.21-2.12,1.53l3.34,4.87h-3.51l-2.92-4.37h-0.04h-2.32v4.37h-3V116.97z M505.26,123.6
			c0.74,0,1.31-0.17,1.71-0.53c0.4-0.35,0.59-0.82,0.59-1.41v-0.03c0-0.65-0.21-1.14-0.62-1.47c-0.42-0.32-1-0.49-1.73-0.49h-2.98
			v3.92H505.26z"/>
		<path class="st0" d="M525.01,130.82c-1.04,0-2.06-0.18-3.06-0.53c-1-0.36-1.91-0.91-2.73-1.65l1.77-2.13
			c0.63,0.51,1.26,0.91,1.92,1.21c0.66,0.3,1.38,0.45,2.16,0.45c0.62,0,1.11-0.11,1.45-0.34c0.34-0.23,0.52-0.54,0.52-0.95v-0.04
			c0-0.2-0.03-0.37-0.11-0.52c-0.07-0.15-0.21-0.29-0.41-0.42c-0.2-0.13-0.48-0.26-0.84-0.39c-0.36-0.13-0.82-0.27-1.4-0.41
			c-0.69-0.17-1.32-0.36-1.88-0.57c-0.56-0.2-1.04-0.46-1.43-0.77c-0.39-0.3-0.7-0.68-0.91-1.14c-0.21-0.46-0.32-1.02-0.32-1.7
			v-0.04c0-0.62,0.11-1.18,0.34-1.69c0.23-0.5,0.56-0.93,0.98-1.3c0.42-0.36,0.92-0.64,1.51-0.84c0.58-0.19,1.22-0.29,1.93-0.29
			c1,0,1.92,0.15,2.76,0.45c0.84,0.3,1.61,0.72,2.31,1.29l-1.56,2.26c-0.61-0.42-1.21-0.74-1.79-0.98
			c-0.59-0.24-1.17-0.36-1.76-0.36c-0.58,0-1.02,0.11-1.32,0.34c-0.29,0.23-0.44,0.51-0.44,0.85v0.04c0,0.22,0.04,0.41,0.13,0.58
			c0.08,0.16,0.24,0.31,0.46,0.44c0.22,0.13,0.52,0.26,0.91,0.37c0.38,0.12,0.87,0.25,1.45,0.41c0.69,0.18,1.31,0.39,1.85,0.61
			c0.54,0.23,1,0.5,1.37,0.82c0.37,0.32,0.65,0.69,0.84,1.12c0.19,0.43,0.28,0.94,0.28,1.54v0.04c0,0.68-0.12,1.28-0.37,1.8
			c-0.25,0.53-0.59,0.97-1.03,1.33c-0.44,0.36-0.96,0.63-1.57,0.82C526.43,130.72,525.75,130.82,525.01,130.82z"/>
	</g>
	<polygon class="st0" points="33.53,92.86 25.77,92.86 25.77,36.62 33.53,28.87 	"/>
	<polygon class="st0" points="49.05,92.86 41.29,92.86 41.29,21.11 49.05,13.35 	"/>
	<polygon class="st0" points="18.02,92.86 10.26,92.86 10.26,59.9 2.5,59.9 10.26,52.14 18.02,44.38 	"/>
	<polygon class="st0" points="80.08,92.86 72.32,92.86 72.32,13.35 80.08,21.11 	"/>
	<rect x="87.84" y="21.11" class="st0" width="7.76" height="71.75"/>
	<polygon class="st0" points="111.1,92.86 103.35,92.86 103.35,44.38 111.1,52.13 118.86,59.89 111.1,59.89 	"/>
	<polygon class="st0" points="64.56,63.95 56.81,63.95 56.81,5.59 60.68,1.71 64.56,5.59 	"/>
</g>
</svg>
